<svg xmlns="http://www.w3.org/2000/svg" viewBox="0 0 256 256" width="100" height="100"><defs><linearGradient x1="31.287" y1="3.383" x2="31.287" y2="62.905" gradientUnits="userSpaceOnUse" id="a"><stop offset="0" stop-color="#aac9ff"/><stop offset="1" stop-color="#3338fb"/></linearGradient><linearGradient x1="30.914" y1="3.911" x2="30.914" y2="62.581" gradientUnits="userSpaceOnUse" id="b"><stop offset="0" stop-color="#aac9ff"/><stop offset="1" stop-color="#3338fb"/></linearGradient><linearGradient x1="39.018" y1="3.213" x2="39.018" y2="62.957" gradientUnits="userSpaceOnUse" id="c"><stop offset="0" stop-color="#aac9ff"/><stop offset="1" stop-color="#3338fb"/></linearGradient><linearGradient x1="30.574" y1="3.373" x2="30.574" y2="62.927" gradientUnits="userSpaceOnUse" id="d"><stop offset="0" stop-color="#aac9ff"/><stop offset="1" stop-color="#3338fb"/></linearGradient><linearGradient x1="29.622" y1="3.213" x2="29.622" y2="62.957" gradientUnits="userSpaceOnUse" id="e"><stop offset="0" stop-color="#aac9ff"/><stop offset="1" stop-color="#3338fb"/></linearGradient><linearGradient x1="50.02" y1=".999" x2="50.02" y2="64.288" gradientUnits="userSpaceOnUse" id="f"><stop offset="0" stop-color="#aac9ff"/><stop offset="1" stop-color="#3338fb"/></linearGradient><linearGradient x1="32" y1="3.213" x2="32" y2="62.957" gradientUnits="userSpaceOnUse" id="g"><stop offset="0" stop-color="#aac9ff"/><stop offset="1" stop-color="#3338fb"/></linearGradient><linearGradient x1="36.106" y1="3.212" x2="36.106" y2="62.958" gradientUnits="userSpaceOnUse" id="h"><stop offset="0" stop-color="#aac9ff"/><stop offset="1" stop-color="#3338fb"/></linearGradient></defs><g fill="none" stroke-miterlimit="10" font-family="none" font-weight="none" font-size="none" text-anchor="none" style="mix-blend-mode:normal"><path d="M23.749 48.868c-9.61 2.669 5.846 8.183 18.081 2.971-2.004-.775-3.439-1.669-3.439-1.669-5.458 1.027-7.99 1.107-12.942.546-4.089-.467-1.7-1.848-1.7-1.848z" fill="url(#a)" transform="scale(4)"/><path d="M40.365 43.613c-7.23 1.364-11.408 1.32-16.699.785-4.091-.415-1.412-2.357-1.412-2.357-10.587 3.442 5.89 7.346 20.684 3.108-1.573-.543-2.573-1.536-2.573-1.536z" fill="url(#b)" transform="scale(4)"/><path d="M46.036 13.383s-21.54 5.331-11.252 17.079c3.035 3.463-.797 6.579-.797 6.579s7.706-3.942 4.167-8.879c-3.306-4.605-5.841-6.892 7.882-14.779z" fill="url(#c)" transform="scale(4)"/><path d="M51.041 53.916s1.768 1.448-1.947 2.569c-7.063 2.128-29.395 2.77-35.599.085-2.23-.965 1.952-2.304 3.268-2.585 1.372-.296 2.156-.241 2.156-.241-2.48-1.737-16.031 3.412-6.883 4.886 24.947 4.023 45.476-1.812 39.005-4.714z" fill="url(#d)" transform="scale(4)"/><path d="M42.465 38.765c1.199-.817 2.857-1.525 2.857-1.525s-4.721.841-9.422 1.237c-5.753.481-11.928.574-15.026.161-7.337-.977 4.023-3.669 4.023-3.669s-4.411-.297-9.837 2.32c-6.415 3.095 15.87 4.503 27.405 1.476z" fill="url(#e)" transform="scale(4)"/><path d="M45.276 46.675c-.054.154-.236.325-.236.325 15.704-4.351 9.93-15.336 2.423-12.555-.659.247-1.005.817-1.005.817s.415-.177 1.345-.381c3.795-.833 9.231 5.355-2.527 11.794z" fill="url(#f)" transform="scale(4)"/><path d="M32.225 34.854c-2.293-5.208-10.071-9.766.004-17.76C44.793 7.128 38.345.647 38.345.647c2.602 10.295-9.172 13.403-13.422 19.815-2.894 4.368 1.421 9.061 7.302 14.392z" fill="url(#g)" transform="scale(4)"/><path d="M45.697 60.706c-9.607 1.804-21.456 1.593-28.484.437 0 0 1.439 1.188 8.837 1.661 11.256.719 28.541-.399 28.95-5.712 0 0-.787 2.014-9.303 3.614z" fill="url(#h)" transform="scale(4)"/></g></svg>