<svg xmlns="http://www.w3.org/2000/svg" viewBox="0 0 256 256" width="100" height="100"><defs><linearGradient x1="32" y1="9.043" x2="32" y2="55.011" gradientUnits="userSpaceOnUse" id="a"><stop offset="0" stop-color="#1a6dff"/><stop offset="1" stop-color="#5d68e3"/></linearGradient><linearGradient x1="45.578" y1="35.681" x2="45.578" y2="50.191" gradientUnits="userSpaceOnUse" id="b"><stop offset="0" stop-color="#5bb9f4"/><stop offset="1" stop-color="#4265d8"/></linearGradient><linearGradient x1="34.081" y1="35.681" x2="34.081" y2="50.191" gradientUnits="userSpaceOnUse" id="c"><stop offset="0" stop-color="#5bb9f4"/><stop offset="1" stop-color="#4265d8"/></linearGradient></defs><g fill="none" stroke-miterlimit="10" font-family="none" font-weight="none" font-size="none" text-anchor="none" style="mix-blend-mode:normal"><path d="M51 8H13c-2.8 0-5 2.2-5 5v38c0 2.8 2.2 5 5 5h38c2.8 0 5-2.2 5-5V13c0-2.8-2.2-5-5-5zm3 43c0 1.7-1.3 3-3 3H13c-1.7 0-3-1.3-3-3V13c0-1.7 1.3-3 3-3h38c1.7 0 3 1.3 3 3z" fill="url(#a)" transform="scale(4)"/><path d="m46.7 41.5-.8-.3c-1.4-.6-2-1-2-2 0-.8.6-1.4 1.5-1.4.8 0 1.3.3 1.8 1 .1.2.4.3.7.1l1.7-1.1c.2-.1.3-.5.2-.7-1-1.5-2.4-2.1-4.3-2.1-2.9 0-4.7 1.8-4.7 4.2 0 2.6 1.5 3.9 3.9 4.8l.8.3c1.5.6 2.2 1 2.2 2.1 0 .9-.7 1.6-2 1.6-1.4 0-2.1-.8-2.8-1.8-.2-.2-.5-.3-.7-.1l-1.7 1.1c-.2.1-.3.4-.2.7 1 1.7 2.6 3 5.4 3 3.1 0 5.3-1.6 5.3-4.5 0-2.6-1.5-3.8-4.3-4.9z" fill="url(#b)" transform="scale(4)"/><path d="M38.5 35h-2.3c-.3 0-.5.2-.5.5v10.1c0 1.6-.6 2-1.7 2-.9 0-1.6-.5-2.1-1.2-.1-.2-.4-.3-.7-.1l-1.8 1.1c-.2.1-.3.5-.2.7.9 1.5 2.6 2.9 5 2.9 2.9 0 4.8-1.5 4.8-4.9V35.5c0-.3-.2-.5-.5-.5z" fill="url(#c)" transform="scale(4)"/></g></svg>